<svg width="48" height="48" viewBox="0 0 48 48" fill="none" xmlns="http://www.w3.org/2000/svg">
<path d="M4 18C4 10.268 10.268 4 18 4C25.732 4 32 10.268 32 18C32 25.732 25.732 32 18 32H4V18Z" fill="#0165FF"/>
<g clip-path="url(#clip0_50_3663)">
<path d="M19.334 31.9997C19.334 25.0041 25.005 19.333 32.0007 19.333C38.9963 19.333 44.6673 25.0041 44.6673 31.9997V44.6663H32.0007C25.005 44.6663 19.334 38.9953 19.334 31.9997Z" fill="#FDB801"/>
<rect x="18.668" y="18.667" width="26.6667" height="13.3333" fill="#56E3FF"/>
</g>
<defs>
<clipPath id="clip0_50_3663">
<path d="M19.334 31.9997C19.334 25.0041 25.005 19.333 32.0007 19.333C38.9963 19.333 44.6673 25.0041 44.6673 31.9997V44.6663H32.0007C25.005 44.6663 19.334 38.9953 19.334 31.9997Z" fill="white"/>
</clipPath>
</defs>
</svg>
