<svg width="56" height="36" viewBox="0 0 56 36" fill="none" xmlns="http://www.w3.org/2000/svg">
<g clip-path="url(#clip0_373_306)">
<path d="M31.7346 35.9975C30.6991 35.9975 29.6562 35.6807 28.758 35.0195C26.5249 33.3777 26.0484 30.2439 27.6951 28.0184L46.907 2.03748C48.1944 0.295936 50.4574 -0.425131 52.5208 0.251025C54.5817 0.927182 55.9764 2.84587 55.9764 5.00658V30.9875C55.9764 33.752 53.7284 35.995 50.9514 35.995C48.1744 35.995 45.9264 33.7545 45.9264 30.9875V20.2388L35.7815 33.9566C34.796 35.2889 33.274 35.9925 31.7321 35.9925L31.7346 35.9975Z" fill="#66CC99"/>
<path d="M12.5104 35.9975C11.475 35.9975 10.4295 35.6807 9.53382 35.0195C7.30075 33.3777 6.8242 30.2439 8.47093 28.0184L27.6828 2.03748C28.9702 0.295936 31.2332 -0.425131 33.2966 0.251025C35.3575 0.927182 36.7523 2.84587 36.7523 5.00658V30.9875C36.7523 33.752 34.5042 35.995 31.7272 35.995C28.9503 35.995 26.7022 33.7545 26.7022 30.9875V20.2388L16.5574 33.9566C15.5718 35.2889 14.0498 35.9925 12.5079 35.9925L12.5104 35.9975Z" fill="#21ACE9"/>
<path d="M12.4977 0.00146484H5.02252C2.24803 0.00146484 0 2.24451 0 5.00902C0 7.77353 2.24803 10.0166 5.02502 10.0166H7.47515V30.9899C7.47515 33.3328 9.08945 35.2914 11.2701 35.8403C11.2801 35.8428 11.2901 35.8453 11.3001 35.8478C11.4148 35.8752 11.5271 35.9002 11.6419 35.9201C11.6943 35.9301 11.7467 35.9376 11.7991 35.9451C11.8864 35.9575 11.9712 35.97 12.0585 35.9775C12.1983 35.99 12.338 35.9975 12.4827 36C12.4877 36 12.4952 36 12.5002 36C12.5052 36 12.5102 36 12.5151 36C12.5925 36 12.6698 35.99 12.7472 35.9875C12.842 35.9825 12.9368 35.98 13.0291 35.9725C13.1414 35.96 13.2512 35.9401 13.361 35.9226C13.4208 35.9126 13.4832 35.9051 13.5431 35.8927C13.6629 35.8677 13.7801 35.8353 13.8974 35.8029C13.9423 35.7904 13.9872 35.7779 14.0321 35.7629C14.1619 35.723 14.2866 35.6756 14.4114 35.6257C14.4363 35.6157 14.4613 35.6057 14.4862 35.5958C16.2727 34.8273 17.5227 33.0583 17.5227 30.9974V5.00902C17.5227 2.24451 15.2722 0.00146484 12.4977 0.00146484Z" fill="#0D5FD6"/>
</g>
<defs>
<clipPath id="clip0_373_306">
<rect width="56" height="36" fill="white"/>
</clipPath>
</defs>
</svg>
