<svg width="100%" height="100%" viewBox="0 0 32 32" fill="current" xmlns="http://www.w3.org/2000/svg">
<g id="Frame 53">
<path id="Subtract" fill-rule="evenodd" clip-rule="evenodd" d="M18.3108 5.33415C17.2846 3.55528 14.7173 3.55528 13.6911 5.33415L3.69378 22.6642C2.66822 24.442 3.95127 26.6634 6.00365 26.6634H25.9983C28.0506 26.6634 29.3337 24.442 28.3081 22.6642L18.3108 5.33415ZM14.7133 12.1777C14.6878 11.7191 15.0528 11.3333 15.512 11.3333H16.4873C16.9466 11.3333 17.3116 11.7191 17.2861 12.1777L16.8886 19.3333H15.1108L14.7133 12.1777ZM17.333 22C17.333 22.7364 16.7361 23.3333 15.9997 23.3333C15.2633 23.3333 14.6663 22.7364 14.6663 22C14.6663 21.2636 15.2633 20.6667 15.9997 20.6667C16.7361 20.6667 17.333 21.2636 17.333 22Z" fill="current"/>
</g>
</svg>
